<svg xmlns="http://www.w3.org/2000/svg" viewBox="0 0 576 512" fill="currentColor"><!--! Font Awesome Free 6.5.1 - License: https://fontawesome.com/license/free --><path d="M385.2 167.6c6.4 0 12.6 .3 18.8 1.1C387.4 90.3 303.3 32 207.7 32 100.5 32 13 104.8 13 197.4c0 53.4 29.3 97.5 77.9 131.6l-19.3 58.6 68-34.1c24.4 4.8 43.8 9.7 68.2 9.7 6.2 0 12.1-.3 18.3-.8-3.8-13-5.9-26.8-5.9-41.2C220.2 235.5 295.8 167.6 385.2 167.6zM146.8 168.3c-11.6 0-21.1-9.5-21.1-21.1s9.5-21.1 21.1-21.1 21.1 9.5 21.1 21.1S158.4 168.3 146.8 168.3zM268.6 168.3c-11.6 0-21.1-9.5-21.1-21.1s9.5-21.1 21.1-21.1 21.1 9.5 21.1 21.1S280.2 168.3 268.6 168.3zM563 321.2c0-77.9-77.9-141.1-165.4-141.1-92.4 0-165.4 63.2-165.4 141.1S305.2 462.4 397.6 462.4c19.3 0 38.9-4.8 58.6-9.7l53.4 29.3-14.8-48.8C534 402.1 563 363.2 563 321.2zM338.7 310.1c-9.5 0-17.2-7.8-17.2-17.2 0-9.5 7.7-17.2 17.2-17.2s17.2 7.7 17.2 17.2C355.9 302.4 348.1 310.1 338.7 310.1zM456.4 310.1c-9.5 0-17.2-7.8-17.2-17.2 0-9.5 7.7-17.2 17.2-17.2s17.2 7.7 17.2 17.2C473.6 302.4 465.9 310.1 456.4 310.1z"/></svg>
